<?xml version="1.0" encoding="utf-8"?><svg width="800px" height="800px" viewBox="0 0 500 500" xmlns="http://www.w3.org/2000/svg"><rect x="40px" y="40px" width="400px" height="400px" fill="white" stroke="black" stroke-width="5px" /><line x1="240px" y1="40px" x2="240px" y2="440px" stroke="gray" stroke-width="2px" /><line x1="40px" y1="240px" x2="440px" y2="240px" stroke="gray" stroke-width="2px" /><text x="35px" y="460px" font-size="10px">0</text><text x="75px" y="460px" font-size="10px">40</text><text x="115px" y="460px" font-size="10px">80</text><text x="155px" y="460px" font-size="10px">120</text><text x="195px" y="460px" font-size="10px">160</text><text x="235px" y="460px" font-size="10px">200</text><text x="275px" y="460px" font-size="10px">240</text><text x="315px" y="460px" font-size="10px">280</text><text x="355px" y="460px" font-size="10px">320</text><text x="395px" y="460px" font-size="10px">360</text><text x="435px" y="460px" font-size="10px">400</text><text x="10px" y="445px" font-size="10px">0</text><text x="10px" y="405px" font-size="10px">40</text><text x="10px" y="365px" font-size="10px">80</text><text x="10px" y="325px" font-size="10px">120</text><text x="10px" y="285px" font-size="10px">160</text><text x="10px" y="245px" font-size="10px">200</text><text x="10px" y="205px" font-size="10px">240</text><text x="10px" y="165px" font-size="10px">280</text><text x="10px" y="125px" font-size="10px">320</text><text x="10px" y="85px" font-size="10px">360</text><text x="10px" y="45px" font-size="10px">400</text><ellipse cx="40px" cy="240px" rx="7px" ry="7px" fill="firebrick" stroke="firebrick" /><ellipse cx="140px" cy="240px" rx="7px" ry="7px" fill="firebrick" stroke="firebrick" /><ellipse cx="240px" cy="240px" rx="7px" ry="7px" fill="firebrick" stroke="firebrick" /><ellipse cx="340px" cy="240px" rx="7px" ry="7px" fill="firebrick" stroke="firebrick" /><ellipse cx="440px" cy="240px" rx="7px" ry="7px" fill="firebrick" stroke="firebrick" /><ellipse cx="240px" cy="40px" rx="7px" ry="7px" fill="firebrick" stroke="firebrick" /><ellipse cx="240px" cy="140px" rx="7px" ry="7px" fill="firebrick" stroke="firebrick" /><ellipse cx="240px" cy="240px" rx="7px" ry="7px" fill="firebrick" stroke="firebrick" /><ellipse cx="240px" cy="340px" rx="7px" ry="7px" fill="firebrick" stroke="firebrick" /><ellipse cx="240px" cy="440px" rx="7px" ry="7px" fill="firebrick" stroke="firebrick" /><ellipse cx="40px" cy="40px" rx="10px" ry="10px" fill="forestgreen" stroke="forestgreen" /><ellipse cx="240px" cy="40px" rx="10px" ry="10px" fill="forestgreen" stroke="forestgreen" /><ellipse cx="440px" cy="40px" rx="10px" ry="10px" fill="forestgreen" stroke="forestgreen" /><ellipse cx="40px" cy="440px" rx="10px" ry="10px" fill="forestgreen" stroke="forestgreen" /><ellipse cx="240px" cy="440px" rx="10px" ry="10px" fill="forestgreen" stroke="forestgreen" /><ellipse cx="440px" cy="440px" rx="10px" ry="10px" fill="forestgreen" stroke="forestgreen" /><ellipse cx="40px" cy="40px" rx="10px" ry="10px" fill="forestgreen" stroke="forestgreen" /><ellipse cx="40px" cy="240px" rx="10px" ry="10px" fill="forestgreen" stroke="forestgreen" /><ellipse cx="40px" cy="440px" rx="10px" ry="10px" fill="forestgreen" stroke="forestgreen" /><ellipse cx="440px" cy="40px" rx="10px" ry="10px" fill="forestgreen" stroke="forestgreen" /><ellipse cx="440px" cy="240px" rx="10px" ry="10px" fill="forestgreen" stroke="forestgreen" /><ellipse cx="440px" cy="440px" rx="10px" ry="10px" fill="forestgreen" stroke="forestgreen" /><text x="85px" y="400px" font-size="25px">0</text><ellipse cx="80px" cy="400px" rx="5px" ry="5px" fill="black" stroke="black" /><text x="105px" y="190px" font-size="25px">1</text><ellipse cx="100px" cy="190px" rx="5px" ry="5px" fill="black" stroke="black" /><text x="295px" y="340px" font-size="25px">2</text><ellipse cx="290px" cy="340px" rx="5px" ry="5px" fill="black" stroke="black" /><text x="345px" y="370px" font-size="25px">3</text><ellipse cx="340px" cy="370px" rx="5px" ry="5px" fill="black" stroke="black" /><text x="55px" y="90px" font-size="25px">4</text><ellipse cx="50px" cy="90px" rx="5px" ry="5px" fill="black" stroke="black" /><line x1="80px" y1="400px" x2="100px" y2="190px" stroke="blue" stroke-width="1px" /><line x1="100px" y1="190px" x2="290px" y2="340px" stroke="blue" stroke-width="1px" /><line x1="290px" y1="340px" x2="340px" y2="370px" stroke="blue" stroke-width="1px" /><line x1="340px" y1="370px" x2="50px" y2="90px" stroke="blue" stroke-width="1px" /></svg>