<?xml version="1.0" encoding="utf-8"?><svg width="1000px" height="800px" viewBox="0 0 700 500" xmlns="http://www.w3.org/2000/svg"><rect x="100px" y="40px" width="400px" height="400px" fill="white" stroke="black" stroke-width="5px" /><line x1="300px" y1="40px" x2="300px" y2="440px" stroke="gray" stroke-width="2px" /><line x1="100px" y1="240px" x2="500px" y2="240px" stroke="gray" stroke-width="2px" /><text x="95px" y="460px" font-size="10px">0</text><text x="135px" y="460px" font-size="10px">40</text><text x="175px" y="460px" font-size="10px">80</text><text x="215px" y="460px" font-size="10px">120</text><text x="255px" y="460px" font-size="10px">160</text><text x="295px" y="460px" font-size="10px">200</text><text x="335px" y="460px" font-size="10px">240</text><text x="375px" y="460px" font-size="10px">280</text><text x="415px" y="460px" font-size="10px">320</text><text x="455px" y="460px" font-size="10px">360</text><text x="495px" y="460px" font-size="10px">400</text><text x="10px" y="445px" font-size="10px">0</text><text x="10px" y="405px" font-size="10px">40</text><text x="10px" y="365px" font-size="10px">80</text><text x="10px" y="325px" font-size="10px">120</text><text x="10px" y="285px" font-size="10px">160</text><text x="10px" y="245px" font-size="10px">200</text><text x="10px" y="205px" font-size="10px">240</text><text x="10px" y="165px" font-size="10px">280</text><text x="10px" y="125px" font-size="10px">320</text><text x="10px" y="85px" font-size="10px">360</text><text x="10px" y="45px" font-size="10px">400</text><ellipse cx="100px" cy="240px" rx="7px" ry="7px" fill="firebrick" stroke="firebrick" /><ellipse cx="200px" cy="240px" rx="7px" ry="7px" fill="firebrick" stroke="firebrick" /><ellipse cx="300px" cy="240px" rx="7px" ry="7px" fill="firebrick" stroke="firebrick" /><ellipse cx="400px" cy="240px" rx="7px" ry="7px" fill="firebrick" stroke="firebrick" /><ellipse cx="500px" cy="240px" rx="7px" ry="7px" fill="firebrick" stroke="firebrick" /><ellipse cx="300px" cy="40px" rx="7px" ry="7px" fill="firebrick" stroke="firebrick" /><ellipse cx="300px" cy="140px" rx="7px" ry="7px" fill="firebrick" stroke="firebrick" /><ellipse cx="300px" cy="240px" rx="7px" ry="7px" fill="firebrick" stroke="firebrick" /><ellipse cx="300px" cy="340px" rx="7px" ry="7px" fill="firebrick" stroke="firebrick" /><ellipse cx="300px" cy="440px" rx="7px" ry="7px" fill="firebrick" stroke="firebrick" /><ellipse cx="100px" cy="40px" rx="10px" ry="10px" fill="forestgreen" stroke="forestgreen" /><ellipse cx="300px" cy="40px" rx="10px" ry="10px" fill="forestgreen" stroke="forestgreen" /><ellipse cx="500px" cy="40px" rx="10px" ry="10px" fill="forestgreen" stroke="forestgreen" /><ellipse cx="100px" cy="440px" rx="10px" ry="10px" fill="forestgreen" stroke="forestgreen" /><ellipse cx="300px" cy="440px" rx="10px" ry="10px" fill="forestgreen" stroke="forestgreen" /><ellipse cx="500px" cy="440px" rx="10px" ry="10px" fill="forestgreen" stroke="forestgreen" /><ellipse cx="100px" cy="40px" rx="10px" ry="10px" fill="forestgreen" stroke="forestgreen" /><ellipse cx="100px" cy="240px" rx="10px" ry="10px" fill="forestgreen" stroke="forestgreen" /><ellipse cx="100px" cy="440px" rx="10px" ry="10px" fill="forestgreen" stroke="forestgreen" /><ellipse cx="500px" cy="40px" rx="10px" ry="10px" fill="forestgreen" stroke="forestgreen" /><ellipse cx="500px" cy="240px" rx="10px" ry="10px" fill="forestgreen" stroke="forestgreen" /><ellipse cx="500px" cy="440px" rx="10px" ry="10px" fill="forestgreen" stroke="forestgreen" /><text x="205px" y="400px" font-size="25px">0</text><ellipse cx="200px" cy="400px" rx="5px" ry="5px" fill="black" stroke="black" /><text x="405px" y="400px" font-size="25px">1</text><ellipse cx="400px" cy="400px" rx="5px" ry="5px" fill="black" stroke="black" /><text x="605px" y="400px" font-size="25px">2</text><ellipse cx="600px" cy="400px" rx="5px" ry="5px" fill="black" stroke="black" /><text x="605px" y="200px" font-size="25px">3</text><ellipse cx="600px" cy="200px" rx="5px" ry="5px" fill="black" stroke="black" /><text x="605px" y="0px" font-size="25px">4</text><ellipse cx="600px" cy="0px" rx="5px" ry="5px" fill="black" stroke="black" /><text x="405px" y="0px" font-size="25px">5</text><ellipse cx="400px" cy="0px" rx="5px" ry="5px" fill="black" stroke="black" /><text x="205px" y="0px" font-size="25px">6</text><ellipse cx="200px" cy="0px" rx="5px" ry="5px" fill="black" stroke="black" /><text x="205px" y="200px" font-size="25px">7</text><ellipse cx="200px" cy="200px" rx="5px" ry="5px" fill="black" stroke="black" /><text x="305px" y="200px" font-size="25px">0</text><ellipse cx="300px" cy="200px" rx="5px" ry="5px" fill="black" stroke="black" /><text x="405px" y="200px" font-size="25px">1</text><ellipse cx="400px" cy="200px" rx="5px" ry="5px" fill="black" stroke="black" /><text x="505px" y="200px" font-size="25px">2</text><ellipse cx="500px" cy="200px" rx="5px" ry="5px" fill="black" stroke="black" /><text x="405px" y="300px" font-size="25px">3</text><ellipse cx="400px" cy="300px" rx="5px" ry="5px" fill="black" stroke="black" /><text x="405px" y="100px" font-size="25px">4</text><ellipse cx="400px" cy="100px" rx="5px" ry="5px" fill="black" stroke="black" /></svg>